<svg id="svg" version="1.1" xmlns="http://www.w3.org/2000/svg" xmlns:xlink="http://www.w3.org/1999/xlink" width="400" height="400" viewBox="0, 0, 400,400"><g id="svgg"><path id="path0" d="M274.215 24.613 L 262.904 35.945 301.147 74.194 L 339.390 112.443 230.047 112.732 C 112.005 113.044,118.480 112.820,101.563 117.172 C 18.095 138.646,-24.485 233.577,14.477 311.328 C 35.410 353.101,75.564 380.736,122.821 385.891 C 127.740 386.428,163.925 386.719,225.750 386.719 L 321.094 386.719 321.094 370.729 L 321.094 354.739 221.680 354.489 L 122.266 354.239 114.063 352.196 C 3.795 324.733,5.243 172.353,116.016 146.618 C 122.939 145.009,124.703 144.980,230.773 144.734 L 338.499 144.484 300.933 182.593 L 263.367 220.703 274.653 232.029 L 285.939 243.354 342.969 186.327 C 374.336 154.963,400.000 128.929,400.000 128.474 C 400.000 127.585,286.935 13.281,286.055 13.281 C 285.764 13.281,280.437 18.381,274.215 24.613 " stroke="none" fill="#000000" fill-rule="evenodd"></path></g></svg>