<svg id="svg" version="1.1" xmlns="http://www.w3.org/2000/svg" xmlns:xlink="http://www.w3.org/1999/xlink" width="400" height="400" viewBox="0, 0, 400,400"><g id="svgg"><path id="path0" d="M56.707 70.476 C 25.518 101.934,0.000 128.038,0.000 128.486 C 0.000 128.934,25.664 154.963,57.031 186.327 L 114.061 243.354 125.347 232.029 L 136.633 220.703 99.067 182.593 L 61.501 144.484 169.227 144.734 C 275.297 144.980,277.061 145.009,283.984 146.618 C 394.740 172.349,396.188 324.737,285.938 352.196 L 277.734 354.239 178.320 354.489 L 78.906 354.739 78.906 370.729 L 78.906 386.719 174.250 386.719 C 236.075 386.719,272.260 386.428,277.179 385.891 C 373.082 375.429,428.618 273.939,385.527 187.891 C 364.584 146.070,323.737 118.087,276.675 113.320 C 271.469 112.792,231.498 112.500,164.569 112.500 L 60.553 112.500 98.825 74.222 L 137.096 35.945 125.785 24.613 C 119.563 18.381,114.235 13.281,113.944 13.281 C 113.653 13.281,87.896 39.019,56.707 70.476 " stroke="none" fill="#000000" fill-rule="evenodd"></path></g></svg>